<?xml version="1.0" encoding="utf-8"?>
<!-- Generator: Adobe Illustrator 25.2.1, SVG Export Plug-In . SVG Version: 6.00 Build 0)  -->
<svg version="1.1" id="Layer_1" xmlns="http://www.w3.org/2000/svg" xmlns:xlink="http://www.w3.org/1999/xlink" x="0px" y="0px"
	 viewBox="0 0 50 50" style="enable-background:new 0 0 50 50;" xml:space="preserve">
<style type="text/css">
	.st0{fill:#030104;}
	.st1{fill:#87D3D6;}
</style>
<g>
	<rect x="17.4" y="23.2" class="st0" width="19.3" height="3.9"/>
	<path class="st1" d="M25.1,42.5H5.8c-1.1,0-1.9-0.9-1.9-1.9V7.7h38.6V24c0.8-0.4,1.7-0.6,2.6-0.6c0.4,0,0.9,0.1,1.3,0.1V5.8
		c0-3.2-2.6-5.8-5.8-5.8H5.8C2.6,0,0,2.6,0,5.8v34.8c0,3.2,2.6,5.8,5.8,5.8H24L25.1,42.5z"/>
	<rect x="17.4" y="15.5" class="st0" width="19.3" height="3.9"/>
	<polygon class="st0" points="17.4,34.8 31.1,34.8 34.9,30.9 17.4,30.9 	"/>
	<rect x="9.6" y="23.2" class="st0" width="3.9" height="3.9"/>
	<rect x="9.6" y="15.5" class="st0" width="3.9" height="3.9"/>
	<rect x="9.6" y="30.9" class="st0" width="3.9" height="3.9"/>
	<g>
		<path class="st0" d="M49.4,30.8l-2.9-2.9c-0.8-0.8-2.1-0.8-2.9,0l-2.4,2.4l5.9,5.9l2.4-2.4C50.2,32.9,50.2,31.6,49.4,30.8z"/>
		<path class="st0" d="M29.6,41.5c-0.1,0.1-0.2,0.2-0.3,0.4l-2,7c-0.1,0.3,0,0.6,0.2,0.9c0.2,0.2,0.4,0.2,0.6,0.2c0.1,0,0.2,0,0.2,0
			l7-2.1c0.2,0,0.3-0.1,0.4-0.3l9.5-9.5L39.1,32L29.6,41.5z M30.5,47.6l-0.8-0.8l1.2-4l3,0.6l0.6,3L30.5,47.6z"/>
	</g>
</g>
</svg>
