<?xml version="1.0" encoding="utf-8"?>
<!-- Generator: Adobe Illustrator 25.2.1, SVG Export Plug-In . SVG Version: 6.00 Build 0)  -->
<svg version="1.1" id="Layer_1" xmlns="http://www.w3.org/2000/svg" xmlns:xlink="http://www.w3.org/1999/xlink" x="0px" y="0px"
	 viewBox="0 0 50 50" style="enable-background:new 0 0 50 50;" xml:space="preserve">
<style type="text/css">
	.st0{fill:#FFFFFF;}
</style>
<g>
	<g>
		<g>
			<path class="st0" d="M48.3,50H1.7C0.7,50,0,49.3,0,48.3V1.7C0,0.7,0.7,0,1.7,0s1.7,0.7,1.7,1.7v45h43.3V3.3h-20v19
				c0,0.9-0.7,1.7-1.7,1.7c-0.9,0-1.7-0.7-1.7-1.7V1.7C23.3,0.7,24.1,0,25,0h23.3C49.3,0,50,0.7,50,1.7v46.7
				C50,49.3,49.3,50,48.3,50z"/>
			<g>
				<polygon class="st0" points="19.2,20.7 25,30.7 30.8,20.7 				"/>
			</g>
		</g>
	</g>
</g>
</svg>
