<?xml version="1.0" encoding="utf-8"?>
<!-- Generator: Adobe Illustrator 25.2.1, SVG Export Plug-In . SVG Version: 6.00 Build 0)  -->
<svg version="1.1" id="Layer_1" xmlns="http://www.w3.org/2000/svg" xmlns:xlink="http://www.w3.org/1999/xlink" x="0px" y="0px"
	 viewBox="0 0 50 50" style="enable-background:new 0 0 50 50;" xml:space="preserve">
<style type="text/css">
	.st0{fill:#FFFFFF;}
</style>
<g>
	<path class="st0" d="M16.34,42.43c-2.21,0-4.01-1.8-4.01-4.01s1.8-4.01,4.01-4.01s4.01,1.8,4.01,4.01S18.55,42.43,16.34,42.43z
		 M16.34,35.28c-1.73,0-3.14,1.41-3.14,3.14s1.41,3.14,3.14,3.14s3.14-1.41,3.14-3.14S18.07,35.28,16.34,35.28z"/>
	<path class="st0" d="M12.4,31.89c-2.21,0-4.01-1.8-4.01-4.01s1.8-4.01,4.01-4.01s4.01,1.8,4.01,4.01S14.61,31.89,12.4,31.89z
		 M12.4,24.73c-1.73,0-3.14,1.41-3.14,3.14s1.41,3.14,3.14,3.14s3.14-1.41,3.14-3.14S14.13,24.73,12.4,24.73z"/>
	<path class="st0" d="M17.91,22.07c-2.21,0-4.01-1.8-4.01-4.01s1.8-4.01,4.01-4.01s4.01,1.8,4.01,4.01S20.12,22.07,17.91,22.07z
		 M17.91,14.92c-1.73,0-3.14,1.41-3.14,3.14s1.41,3.14,3.14,3.14c1.73,0,3.14-1.41,3.14-3.14S19.64,14.92,17.91,14.92z"/>
	<path class="st0" d="M29.18,19.7c-2.21,0-4.01-1.8-4.01-4.01s1.8-4.01,4.01-4.01s4.01,1.8,4.01,4.01S31.4,19.7,29.18,19.7z
		 M29.18,12.55c-1.73,0-3.14,1.41-3.14,3.14c0,1.73,1.41,3.14,3.14,3.14s3.14-1.41,3.14-3.14C32.32,13.96,30.91,12.55,29.18,12.55z"
		/>
	<path class="st0" d="M38.18,29.88c-2.21,0-4.01-1.8-4.01-4.01c0-2.21,1.8-4.01,4.01-4.01s4.01,1.8,4.01,4.01
		C42.2,28.08,40.4,29.88,38.18,29.88z M38.18,22.73c-1.73,0-3.14,1.41-3.14,3.14c0,1.73,1.41,3.14,3.14,3.14s3.14-1.41,3.14-3.14
		C41.32,24.14,39.91,22.73,38.18,22.73z"/>
	<g>
		<path class="st0" d="M41.12,17.15l0.12,0.2c1.11,1.72,1.75,3.92,1.9,6.52c0.27,4.71-1.58,9.47-4.49,11.58
			c-1.92,1.39-4.2,1.58-6.76,0.58c-0.07-0.03-0.16-0.08-0.24-0.13c-0.51-0.47-1.19-0.74-1.89-0.74c-1.55,0-2.8,1.26-2.8,2.8
			c0,0.5,0.13,0.99,0.38,1.41c0.05,0.08,0.1,0.16,0.16,0.22c0.45,0.74,0.7,1.65,0.7,2.57c0,2.75-1.98,4.82-4.61,4.82h-0.16
			C13.6,46.13,5.91,37.73,5.91,27.85c0-10.57,8.63-19.19,19.23-19.23c0.03,0,0.06,0,0.09,0c4.28,0,7.92,1.06,10.9,3.15l1.72-2.44
			c-3.51-2.45-7.8-3.72-12.72-3.71C12.88,5.66,2.91,15.63,2.91,27.85c0,11.45,8.93,21.18,20.33,22.15c0.04,0,0.08,0.01,0.13,0.01
			h0.22c4.27,0,7.61-3.44,7.61-7.82c0-1.26-0.28-2.47-0.82-3.55c0.13,0.07,0.27,0.14,0.4,0.19c4.47,1.75,7.7,0.46,9.63-0.94
			c4.33-3.14,6-9.38,5.73-14.17c-0.18-3.14-0.98-5.82-2.36-7.96l-0.1-0.17c-0.67-1.1-1.42-2.11-2.23-3.03l-1.62,2.74
			C40.28,15.87,40.71,16.49,41.12,17.15z"/>
	</g>
	<g>
		<path class="st0" d="M45.4,0.36c0,0,0.43-0.7,1.27-0.13s0.13,1.27,0.13,1.27L31.4,27.62l-3.51-2.42
			C27.89,25.19,45.4,0.36,45.4,0.36z"/>
		<polygon class="st0" points="27.32,26.04 30.88,28.23 30.11,29 27.03,27.16 		"/>
		<path class="st0" d="M27.03,27.16c0,0-2.12,0.41-3.26,2.66c-1.14,2.25-0.32,5.91-1.95,7.25c0,0,8.12-1.56,8.29-8.07L27.03,27.16z"
			/>
	</g>
</g>
</svg>
