<?xml version="1.0" encoding="utf-8"?>
<!-- Generator: Adobe Illustrator 25.2.1, SVG Export Plug-In . SVG Version: 6.00 Build 0)  -->
<svg version="1.1" id="Layer_1" xmlns="http://www.w3.org/2000/svg" xmlns:xlink="http://www.w3.org/1999/xlink" x="0px" y="0px"
	 viewBox="0 0 50 50" style="enable-background:new 0 0 50 50;" xml:space="preserve">
<style type="text/css">
	.st0{fill:#78E4B1;}
	.st1{fill:none;stroke:#000000;stroke-width:1.7354;stroke-linecap:round;stroke-linejoin:round;stroke-miterlimit:10;}
	.st2{fill:none;stroke:#000000;stroke-width:2;stroke-miterlimit:10;}
	.st3{fill:none;stroke:#000000;stroke-width:2;stroke-linecap:round;stroke-linejoin:round;stroke-miterlimit:10;}
</style>
<g>
	<g>
		<path class="st0" d="M33.31,23.88V10.87c0-0.33-0.22-0.55-0.55-0.55H17.02c-0.33,0-0.55,0.22-0.55,0.55v12.9
			c0,0.33-0.22,0.55-0.55,0.55h-3.39c-0.55,0-0.77,0.55-0.44,0.98l12.47,14.22c0.22,0.22,0.66,0.22,0.87,0L37.9,25.3
			c0.33-0.33,0.11-0.98-0.44-0.98h-3.39C33.64,24.43,33.31,24.21,33.31,23.88z"/>
		<path class="st1" d="M16.47,21.15v2.62c0,0.33-0.22,0.55-0.55,0.55h-3.39c-0.55,0-0.77,0.55-0.44,0.98l12.47,14.22
			c0.22,0.22,0.66,0.22,0.87,0L37.9,25.3c0.33-0.33,0.11-0.98-0.44-0.98h-3.39c-0.33,0-0.55-0.22-0.55-0.55v-12.9
			c0-0.33-0.22-0.55-0.55-0.55H17.02c-0.33,0-0.55,0.22-0.55,0.55v2.41"/>
	</g>
	<circle class="st2" cx="25" cy="25" r="24"/>
	<polyline class="st3" points="25,15.93 25,24.82 31.22,28.65 	"/>
</g>
</svg>
