<?xml version="1.0" encoding="utf-8"?>
<!-- Generator: Adobe Illustrator 25.2.1, SVG Export Plug-In . SVG Version: 6.00 Build 0)  -->
<svg version="1.1" id="Layer_1" xmlns="http://www.w3.org/2000/svg" xmlns:xlink="http://www.w3.org/1999/xlink" x="0px" y="0px"
	 viewBox="0 0 50 50" style="enable-background:new 0 0 50 50;" xml:space="preserve">
<style type="text/css">
	.st0{fill:#FFFFFF;}
</style>
<path class="st0" d="M42.3,33c-0.9,0-1.7,0.1-2.4,0.4c0,0,0-0.1-0.1-0.1L29.5,15.5c0,0,0,0,0,0c1.8-1.4,3-3.6,3-6.1
	c0-4.2-3.4-7.7-7.7-7.7s-7.7,3.4-7.7,7.7c0,2.4,1.1,4.6,2.9,6c0,0,0,0.1-0.1,0.1L9.8,33.1c0,0.1-0.1,0.1-0.1,0.2
	C9.1,33.1,8.4,33,7.7,33C3.4,33,0,36.4,0,40.7c0,4.2,3.4,7.7,7.7,7.7c3.7,0,6.8-2.7,7.5-6.2c0.1,0,0.1,0,0.2,0h19.4c0,0,0.1,0,0.1,0
	c0.7,3.5,3.8,6.2,7.5,6.2c4.2,0,7.7-3.4,7.7-7.7C50,36.4,46.6,33,42.3,33z M24.9,4.7c2.6,0,4.7,2.1,4.7,4.7S27.5,14,24.9,14
	s-4.7-2.1-4.7-4.7S22.3,4.7,24.9,4.7z M7.7,45.3c-2.6,0-4.7-2.1-4.7-4.7S5.1,36,7.7,36c2.6,0,4.7,2.1,4.7,4.7S10.2,45.3,7.7,45.3z
	 M34.8,39.2c0,0-0.1,0-0.1,0H15.3c-0.1,0-0.1,0-0.2,0c-0.4-1.8-1.4-3.4-2.8-4.5c0,0,0,0,0-0.1l10.2-17.7c0-0.1,0.1-0.1,0.1-0.2
	c0.7,0.2,1.4,0.3,2.1,0.3c0.7,0,1.3-0.1,2-0.3c0,0.1,0.1,0.2,0.1,0.2l10.3,17.8c0,0,0.1,0.1,0.1,0.1C36.1,36,35.2,37.5,34.8,39.2z
	 M42.3,45.3c-2.6,0-4.7-2.1-4.7-4.7s2.1-4.7,4.7-4.7c2.6,0,4.7,2.1,4.7,4.7S44.9,45.3,42.3,45.3z"/>
</svg>
