<?xml version="1.0" encoding="utf-8"?>
<!-- Generator: Adobe Illustrator 25.2.1, SVG Export Plug-In . SVG Version: 6.00 Build 0)  -->
<svg version="1.1" id="Layer_1" xmlns="http://www.w3.org/2000/svg" xmlns:xlink="http://www.w3.org/1999/xlink" x="0px" y="0px"
	 viewBox="0 0 50 50" style="enable-background:new 0 0 50 50;" xml:space="preserve">
<style type="text/css">
	.st0{fill:#FFFFFF;}
</style>
<g>
	<g>
		<path class="st0" d="M43,42.35l-2.16-2.08c0.08-0.08,0.16-0.17,0.24-0.25l2.19,2.05C43.18,42.16,43.09,42.26,43,42.35z
			 M43.98,41.28l-2.28-1.95c1.02-1.18,1.91-2.48,2.65-3.85l2.64,1.43C46.14,38.46,45.13,39.93,43.98,41.28z M47.48,35.96l-2.7-1.32
			c0.68-1.4,1.22-2.88,1.59-4.39l2.91,0.71C48.86,32.69,48.25,34.37,47.48,35.96z M49.51,29.93l-2.94-0.59
			C46.86,27.92,47,26.46,47,25c0-0.11,0-0.21,0-0.32l3-0.04c0,0.12,0,0.24,0,0.36C50,26.66,49.84,28.32,49.51,29.93z M46.97,23.75
			c-0.09-1.56-0.34-3.11-0.75-4.61l2.89-0.8c0.47,1.7,0.76,3.47,0.86,5.24L46.97,23.75z M45.94,18.24c-0.48-1.48-1.12-2.92-1.9-4.26
			l2.6-1.51c0.89,1.53,1.62,3.17,2.16,4.85L45.94,18.24z M43.56,13.18c-0.84-1.31-1.82-2.54-2.92-3.65l2.13-2.11
			c1.25,1.26,2.36,2.65,3.31,4.15L43.56,13.18z M39.97,8.88c-1.14-1.06-2.4-2-3.74-2.8l1.53-2.58c1.52,0.9,2.95,1.97,4.25,3.18
			L39.97,8.88z M35.41,5.62c-1.37-0.74-2.83-1.33-4.32-1.76l0.83-2.88c1.7,0.49,3.36,1.16,4.92,2L35.41,5.62z M30.4,3.68
			c-1.52-0.37-3.07-0.58-4.63-0.62l0.08-3c1.77,0.04,3.54,0.28,5.26,0.7L30.4,3.68z"/>
		<path class="st0" d="M25,50c-6.68,0-12.96-2.6-17.68-7.32C2.6,37.96,0,31.68,0,25S2.6,12.04,7.32,7.32C12.04,2.6,18.32,0,25,0v3
			C12.87,3,3,12.87,3,25s9.87,22,22,22c4.1,0,8.1-1.13,11.56-3.28l1.58,2.55C34.2,48.71,29.66,50,25,50z"/>
		<polygon class="st0" points="32.66,34.06 23,28.14 23,14.5 26,14.5 26,26.46 34.23,31.51 		"/>
	</g>
	<path class="st0" d="M36.19,43.95c1.76-1.02,3.36-2.28,4.75-3.74l2.18,2.06c-1.57,1.65-3.37,3.08-5.35,4.23L36.19,43.95z"/>
</g>
</svg>
