<?xml version="1.0" encoding="utf-8"?>
<!-- Generator: Adobe Illustrator 25.2.1, SVG Export Plug-In . SVG Version: 6.00 Build 0)  -->
<svg version="1.1" id="Layer_1" xmlns="http://www.w3.org/2000/svg" xmlns:xlink="http://www.w3.org/1999/xlink" x="0px" y="0px"
	 viewBox="0 0 50 50" style="enable-background:new 0 0 50 50;" xml:space="preserve">
<style type="text/css">
	.st0{fill:#FFFFFF;}
</style>
<g>
	<path class="st0" d="M25.01,48.19c-0.17,0-0.35-0.03-0.52-0.09l-0.18-0.07c-0.27-0.1-0.51-0.28-0.69-0.52l-0.11-0.16l-16.7-16.7
		c-0.87-0.86-1.74-1.73-2.59-2.62c-2.04-2.14-3.36-4.7-3.92-7.61C0.23,20,0.17,19.56,0.1,19.11l-0.08-0.57
		C0.01,18.46,0,18.39,0,18.31v-1.66c0-0.1,0.01-0.2,0.03-0.3l0.05-0.25c0.03-0.18,0.05-0.37,0.07-0.55c0.05-0.44,0.1-0.87,0.2-1.3
		C1.5,8.85,5.32,4.57,10.56,2.82c4.95-1.66,10.23-0.77,14.32,2.38c1.99-1.59,4.26-2.63,6.76-3.1c0.43-0.08,0.86-0.14,1.29-0.2
		l0.54-0.07c0.07-0.01,0.14-0.02,0.21-0.02h1.66c0.12,0,0.24,0.01,0.36,0.04c0.02,0,0.08,0.02,0.12,0.03
		c1.68,0.13,3.38,0.56,5.03,1.29c6.69,2.97,10.37,10.32,8.75,17.45c-0.68,3-2.17,5.61-4.55,7.98c-5.52,5.5-11.03,11.01-16.54,16.52
		l-2.11,2.11c-0.04,0.08-0.07,0.14-0.1,0.19C26.05,47.91,25.54,48.19,25.01,48.19z M26.31,47.35L26.31,47.35
		C26.31,47.35,26.31,47.35,26.31,47.35z M3,18.2l0.07,0.48c0.06,0.4,0.11,0.79,0.19,1.18c0.45,2.33,1.51,4.39,3.14,6.11
		c0.82,0.87,1.68,1.71,2.53,2.55l15.98,15.98l1.49-1.5c5.51-5.51,11.02-11.03,16.55-16.53c1.96-1.95,3.18-4.08,3.74-6.52
		c1.29-5.65-1.74-11.69-7.04-14.05c-1.38-0.61-2.73-0.96-4.11-1.05c-0.15-0.01-0.28-0.04-0.38-0.06h-1.35l-0.46,0.06
		c-0.38,0.05-0.76,0.1-1.14,0.17c-2.27,0.43-4.31,1.44-6.06,3.01L25.9,8.27c-0.55,0.48-1.37,0.5-1.94,0.04
		c-0.16-0.13-0.24-0.19-0.32-0.26c-3.37-2.92-7.9-3.81-12.13-2.39c-4.23,1.42-7.31,4.86-8.23,9.21c-0.07,0.34-0.11,0.68-0.15,1.02
		c-0.02,0.21-0.05,0.41-0.08,0.62c-0.01,0.1-0.03,0.2-0.06,0.3V18.2z"/>
	<path class="st0" d="M24.49,10.7l-8.8,22.34c-0.11,0.28,0.19,0.54,0.45,0.39l7.13-3.98c0.09-0.05,0.15-0.14,0.16-0.24l1.06-8.45
		c0.05-0.37,0.59-0.37,0.63,0.01l0.88,8.43c0.01,0.11,0.07,0.2,0.17,0.25l7.7,4.01c0.26,0.14,0.55-0.13,0.44-0.4L25.08,10.7
		C24.97,10.43,24.59,10.44,24.49,10.7z"/>
</g>
</svg>
