<?xml version="1.0" encoding="utf-8"?>
<!-- Generator: Adobe Illustrator 25.2.1, SVG Export Plug-In . SVG Version: 6.00 Build 0)  -->
<svg version="1.1" id="Layer_1" xmlns="http://www.w3.org/2000/svg" xmlns:xlink="http://www.w3.org/1999/xlink" x="0px" y="0px"
	 viewBox="0 0 50 50" style="enable-background:new 0 0 50 50;" xml:space="preserve">
<style type="text/css">
	.st0{fill:#FFFFFF;}
</style>
<g>
	<g>
		<path class="st0" d="M34.6,40.4c-8,0-14.6-6.1-15.4-13.9h-6.8c-0.8,0-1.5-0.7-1.5-1.5c0-0.8,0.7-1.5,1.5-1.5h8.3
			c0.8,0,1.5,0.7,1.5,1.5c0,6.8,5.6,12.4,12.4,12.4S46.9,31.8,46.9,25s-5.6-12.4-12.4-12.4h-33c-0.8,0-1.5-0.7-1.5-1.5
			s0.7-1.5,1.5-1.5h33C43.1,9.6,50,16.5,50,25S43.1,40.4,34.6,40.4z"/>
		<path class="st0" d="M39.9,29.2c-0.3,0-0.6-0.1-0.8-0.2l-5.4-3.3c-0.5-0.3-0.7-0.8-0.7-1.3v-7.7c0-0.8,0.7-1.5,1.5-1.5
			s1.5,0.7,1.5,1.5v6.8l4.7,2.9c0.7,0.4,0.9,1.4,0.5,2.1C41,29,40.5,29.2,39.9,29.2z"/>
	</g>
	<path class="st0" d="M21.7,17.3H6.1c-0.8,0-1.5-0.7-1.5-1.5s0.7-1.5,1.5-1.5h15.6c0.8,0,1.5,0.7,1.5,1.5S22.5,17.3,21.7,17.3z"/>
	<path class="st0" d="M21.7,21.9H9.4c-0.8,0-1.5-0.7-1.5-1.5s0.7-1.5,1.5-1.5h12.2c0.8,0,1.5,0.7,1.5,1.5S22.5,21.9,21.7,21.9z"/>
</g>
</svg>
