<?xml version="1.0" encoding="utf-8"?>
<!-- Generator: Adobe Illustrator 25.2.1, SVG Export Plug-In . SVG Version: 6.00 Build 0)  -->
<svg version="1.1" id="Layer_1" xmlns="http://www.w3.org/2000/svg" xmlns:xlink="http://www.w3.org/1999/xlink" x="0px" y="0px"
	 viewBox="0 0 50 50" style="enable-background:new 0 0 50 50;" xml:space="preserve">
<style type="text/css">
	.st0{fill:#F9EEB7;}
	.st1{fill:#F7DA92;}
	.st2{fill:#FFFFFF;}
</style>
<g>
	<g>
		<path d="M28.14,50h-6.3c-1.5,0-3.1-1.3-3.1-3.8v-4.4c0-2.1-1-4-2.7-5.4c-3.8-2.9-5.6-7.1-5.6-11.7c0.2-7.9,6.7-14.2,14.4-14.4
			c4,0,7.7,1.5,10.4,4.2c2.7,2.7,4.4,6.5,4.4,10.4c0,4.4-1.9,8.5-5.4,11.2c-1.9,1.5-2.9,3.8-2.9,5.8v4.8
			C31.24,48.5,29.74,50,28.14,50L28.14,50z M25.04,12.5c-6.7,0-12.3,5.6-12.5,12.3c0,4,1.7,7.7,4.8,10c2.3,1.9,3.5,4.4,3.5,7.1v4.4
			c0,0.4,0,1.7,1,1.7h6.3c0.6,0,1-0.4,1-1v-4.8c0-2.7,1.5-5.6,3.7-7.5c2.9-2.3,4.6-5.8,4.6-9.6c0-3.3-1.2-6.5-3.8-9
			C31.44,13.7,28.34,12.5,25.04,12.5L25.04,12.5z"/>
	</g>
	<path class="st0" d="M25.04,12.5c-6.7,0-12.3,5.6-12.5,12.3c0,4,1.7,7.7,4.8,10c2.3,1.9,3.5,4.4,3.5,7.1v4.4c0,0.4,0,1.7,1,1.7h6.3
		c0.6,0,1-0.4,1-1v-4.8c0-2.7,1.5-5.6,3.7-7.5c2.9-2.3,4.6-5.8,4.6-9.6c0-3.3-1.2-6.5-3.8-9C31.44,13.7,28.34,12.5,25.04,12.5
		L25.04,12.5z"/>
	<g>
		<path class="st1" d="M23.14,42.7c0-2.8-1.3-5.4-3.6-7.3c-3.2-2.4-4.9-6.2-4.9-10.3c0.2-6.5,5.4-12,11.7-12.6
			c-0.4,0-0.8-0.1-1.3-0.1c-6.7,0-12.3,5.6-12.5,12.3c0,4,1.7,7.7,4.8,10c2.3,1.9,3.5,4.4,3.5,7.1v4.4c0,0.4,0,1.7,1,1.7h1.3
			c0-0.3,0-0.5,0-0.7C23.14,47.2,23.14,42.7,23.14,42.7z"/>
	</g>
	<g>
		<path d="M30.24,43.7h-10.5c-0.6,0-1-0.4-1-1s0.4-1,1-1h10.4c0.6,0,1,0.4,1,1S30.84,43.7,30.24,43.7z"/>
	</g>
	<g>
		<path d="M25.04,6.3c-0.6,0-1-0.4-1-1V1c0-0.6,0.4-1,1-1s1,0.4,1,1v4.2C26.04,5.8,25.64,6.3,25.04,6.3z"/>
	</g>
	<g>
		<path d="M38.94,12.1c-0.2,0-0.6,0-0.8-0.2c-0.4-0.4-0.4-1,0-1.5l2.9-2.9c0.4-0.4,1-0.4,1.5,0c0.4,0.4,0.4,1,0,1.5l-2.9,2.9
			C39.54,11.9,39.14,12.1,38.94,12.1L38.94,12.1z"/>
	</g>
	<g>
		<path d="M48.94,26h-4.2c-0.6,0-1-0.4-1-1s0.4-1,1-1h4.2c0.6,0,1,0.4,1,1C50.04,25.6,49.54,26,48.94,26z"/>
	</g>
	<g>
		<path d="M41.84,42.9c-0.2,0-0.6,0-0.8-0.2l-2.9-2.9c-0.4-0.4-0.4-1,0-1.5c0.4-0.4,1-0.4,1.5,0l2.9,2.9c0.4,0.4,0.4,1,0,1.5
			C42.54,42.9,42.24,42.9,41.84,42.9L41.84,42.9z"/>
	</g>
	<g>
		<path d="M8.14,42.9c-0.2,0-0.6,0-0.8-0.2c-0.4-0.4-0.4-1,0-1.5l2.9-2.9c0.4-0.4,1-0.4,1.5,0c0.4,0.4,0.4,1,0,1.5l-2.9,2.9
			C8.54,42.9,8.34,42.9,8.14,42.9z"/>
	</g>
	<g>
		<path d="M5.24,26h-4.2c-0.6,0-1-0.4-1-1s0.4-1,1-1h4.2c0.6,0,1,0.4,1,1S5.84,26,5.24,26z"/>
	</g>
	<g>
		<path d="M11.04,12.1c-0.2,0-0.6,0-0.8-0.2l-2.9-3.1c-0.4-0.4-0.4-1,0-1.5c0.4-0.4,1-0.4,1.5,0l2.9,2.9c0.4,0.4,0.4,1,0,1.5
			C11.44,11.9,11.24,12.1,11.04,12.1L11.04,12.1z"/>
	</g>
	<g>
		<path class="st2" d="M33.34,26c-0.6,0-1-0.4-1-1c0-4-3.3-7.3-7.3-7.3c-0.6,0-1-0.4-1-1s0.4-1,1-1c5.2,0,9.4,4.2,9.4,9.4
			C34.34,25.6,33.94,26,33.34,26z"/>
	</g>
</g>
</svg>
